HIERARCHY
ROOT Hips
{
  OFFSET 5.72205e-005 65.662 3.42586
  CHANNELS 6 Xposition Yposition Zposition Zrotation Xrotation Yrotation
  JOINT Chest
  {
    OFFSET 0 8.7983 -4.7612
    CHANNELS 3 Zrotation Xrotation Yrotation
    JOINT Chest2
    {
      OFFSET 0 8.0291 0.4195
      CHANNELS 3 Zrotation Xrotation Yrotation
      JOINT Chest3
      {
        OFFSET 0 9.9351 -2.2114
        CHANNELS 3 Zrotation Xrotation Yrotation
        JOINT Neck
        {
          OFFSET 0 22.3885 -0.4656
          CHANNELS 3 Zrotation Xrotation Yrotation
          JOINT Head
          {
            OFFSET -0.0001 12.643 3.4389
            CHANNELS 3 Zrotation Xrotation Yrotation
            End Site
            {
              OFFSET 0.0001 17.6655 0.5274
            }
          }
        }
        JOINT LeftCollar
        {
          OFFSET 2.2603 21.606 7.4023
          CHANNELS 3 Zrotation Xrotation Yrotation
          JOINT LeftShoulder
          {
            OFFSET 13.5163 -1.1332 -5.0146
            CHANNELS 3 Zrotation Xrotation Yrotation
            JOINT LeftElbow
            {
              OFFSET -0.0995 -28.05 -0.2431
              CHANNELS 3 Zrotation Xrotation Yrotation
              JOINT LeftWrist
              {
                OFFSET 0.0679 -23.3996 -0.1402
                CHANNELS 3 Zrotation Xrotation Yrotation
                JOINT LeftFinger1
                {
                  OFFSET 0.7932 -9.069 2.5189
                  CHANNELS 3 Zrotation Xrotation Yrotation
                  JOINT LeftFinger11
                  {
                    OFFSET -0.8272 -3.3923 0.5977
                    CHANNELS 3 Zrotation Xrotation Yrotation
                    JOINT LeftFinger12
                    {
                      OFFSET -0.5649 -2.3158 0.4082
                      CHANNELS 3 Zrotation Xrotation Yrotation
                      End Site
                      {
                        OFFSET -0.4919 -1.6479 0.2673
                      }
                    }
                  }
                }
                JOINT LeftFinger2
                {
                  OFFSET 0.9159 -9.2044 0.2193
                  CHANNELS 3 Zrotation Xrotation Yrotation
                  JOINT LeftFinger21
                  {
                    OFFSET 0.0117 -4.1944 -0.0248
                    CHANNELS 3 Zrotation Xrotation Yrotation
                    JOINT LeftFinger22
                    {
                      OFFSET 0.0071 -2.3249 -0.0142
                      CHANNELS 3 Zrotation Xrotation Yrotation
                      End Site
                      {
                        OFFSET -0.1475 -2.0882 0.0028
                      }
                    }
                  }
                }
                JOINT LeftFinger3
                {
                  OFFSET 0.6113 -8.7231 -2.0637
                  CHANNELS 3 Zrotation Xrotation Yrotation
                  JOINT LeftFinger31
                  {
                    OFFSET -0.1927 -3.8059 -0.2383
                    CHANNELS 3 Zrotation Xrotation Yrotation
                    JOINT LeftFinger32
                    {
                      OFFSET -0.1091 -2.1688 -0.1362
                      CHANNELS 3 Zrotation Xrotation Yrotation
                      End Site
                      {
                        OFFSET -0.2358 -1.9176 -0.0906
                      }
                    }
                  }
                }
                JOINT LeftFinger4
                {
                  OFFSET -0.6151 -8.0947 -3.5641
                  CHANNELS 3 Zrotation Xrotation Yrotation
                  JOINT LeftFinger41
                  {
                    OFFSET -0.4882 -2.341 -0.6462
                    CHANNELS 3 Zrotation Xrotation Yrotation
                    JOINT LeftFinger42
                    {
                      OFFSET -0.3575 -1.7167 -0.4742
                      CHANNELS 3 Zrotation Xrotation Yrotation
                      End Site
                      {
                        OFFSET -0.4187 -1.5237 -0.3496
                      }
                    }
                  }
                }
                JOINT LeftFinger0
                {
                  OFFSET -1.42 -1.8761 1.4223
                  CHANNELS 3 Zrotation Xrotation Yrotation
                  JOINT LeftFinger01
                  {
                    OFFSET -1.1471 -3.4929 2.6334
                    CHANNELS 3 Zrotation Xrotation Yrotation
                    JOINT LeftFinger02
                    {
                      OFFSET -0.823 -2.3 1.6571
                      CHANNELS 3 Zrotation Xrotation Yrotation
                      End Site
                      {
                        OFFSET -0.5822 -1.6914 1.1582
                      }
                    }
                  }
                }
              }
            }
          }
        }
        JOINT RightCollar
        {
          OFFSET -2.2603 21.606 7.4023
          CHANNELS 3 Zrotation Xrotation Yrotation
          JOINT RightShoulder
          {
            OFFSET -13.5187 -1.1334 -5.0155
            CHANNELS 3 Zrotation Xrotation Yrotation
            JOINT RightElbow
            {
              OFFSET 0.0994 -28.0499 -0.2431
              CHANNELS 3 Zrotation Xrotation Yrotation
              JOINT RightWrist
              {
                OFFSET -0.0679 -23.3996 -0.1402
                CHANNELS 3 Zrotation Xrotation Yrotation
                JOINT RightFinger1
                {
                  OFFSET -0.7932 -9.0691 2.5189
                  CHANNELS 3 Zrotation Xrotation Yrotation
                  JOINT RightFinger11
                  {
                    OFFSET 0.8272 -3.3923 0.5977
                    CHANNELS 3 Zrotation Xrotation Yrotation
                    JOINT RightFinger12
                    {
                      OFFSET 0.565 -2.3158 0.4082
                      CHANNELS 3 Zrotation Xrotation Yrotation
                      End Site
                      {
                        OFFSET 0.4919 -1.6479 0.2673
                      }
                    }
                  }
                }
                JOINT RightFinger2
                {
                  OFFSET -0.916 -9.2044 0.2193
                  CHANNELS 3 Zrotation Xrotation Yrotation
                  JOINT RightFinger21
                  {
                    OFFSET -0.0117 -4.1944 -0.0248
                    CHANNELS 3 Zrotation Xrotation Yrotation
                    JOINT RightFinger22
                    {
                      OFFSET -0.0071 -2.3249 -0.0142
                      CHANNELS 3 Zrotation Xrotation Yrotation
                      End Site
                      {
                        OFFSET 0.1475 -2.0882 0.0028
                      }
                    }
                  }
                }
                JOINT RightFinger3
                {
                  OFFSET -0.6113 -8.7231 -2.0637
                  CHANNELS 3 Zrotation Xrotation Yrotation
                  JOINT RightFinger31
                  {
                    OFFSET 0.1927 -3.8059 -0.2383
                    CHANNELS 3 Zrotation Xrotation Yrotation
                    JOINT RightFinger32
                    {
                      OFFSET 0.1091 -2.1688 -0.1362
                      CHANNELS 3 Zrotation Xrotation Yrotation
                      End Site
                      {
                        OFFSET 0.2358 -1.9176 -0.0906
                      }
                    }
                  }
                }
                JOINT RightFinger4
                {
                  OFFSET 0.6151 -8.0947 -3.564
                  CHANNELS 3 Zrotation Xrotation Yrotation
                  JOINT RightFinger41
                  {
                    OFFSET 0.4882 -2.341 -0.6462
                    CHANNELS 3 Zrotation Xrotation Yrotation
                    JOINT RightFinger42
                    {
                      OFFSET 0.3574 -1.7166 -0.4742
                      CHANNELS 3 Zrotation Xrotation Yrotation
                      End Site
                      {
                        OFFSET 0.4187 -1.5237 -0.3496
                      }
                    }
                  }
                }
                JOINT RightFinger0
                {
                  OFFSET 1.4199 -1.8761 1.4221
                  CHANNELS 3 Zrotation Xrotation Yrotation
                  JOINT RightFinger01
                  {
                    OFFSET 1.1472 -3.4929 2.6336
                    CHANNELS 3 Zrotation Xrotation Yrotation
                    JOINT RightFinger02
                    {
                      OFFSET 0.8229 -2.3 1.6571
                      CHANNELS 3 Zrotation Xrotation Yrotation
                      End Site
                      {
                        OFFSET 0.5822 -1.6914 1.1582
                      }
                    }
                  }
                }
              }
            }
          }
        }
      }
    }
  }
  JOINT RightHip
  {
    OFFSET -9.412 3.9771 -0.7758
    CHANNELS 3 Zrotation Xrotation Yrotation
    JOINT RightKnee
    {
      OFFSET -0.7531 -40.938 0
      CHANNELS 3 Zrotation Xrotation Yrotation
      JOINT RightAnkle
      {
        OFFSET 0 -40.1986 0
        CHANNELS 3 Zrotation Xrotation Yrotation
        JOINT RightToe
        {
          OFFSET 0 -4.4182 9.239
          CHANNELS 3 Zrotation Xrotation Yrotation
          End Site
          {
            OFFSET 0 0 6.1981
          }
        }
      }
    }
  }
  JOINT LeftHip
  {
    OFFSET 9.4119 3.9773 -0.7758
    CHANNELS 3 Zrotation Xrotation Yrotation
    JOINT LeftKnee
    {
      OFFSET 0.7532 -40.9383 0
      CHANNELS 3 Zrotation Xrotation Yrotation
      JOINT LeftAnkle
      {
        OFFSET 0 -40.1986 0
        CHANNELS 3 Zrotation Xrotation Yrotation
        JOINT LeftToe
        {
          OFFSET 0 -4.4182 9.239
          CHANNELS 3 Zrotation Xrotation Yrotation
          End Site
          {
            OFFSET 0 0 6.1981
          }
        }
      }
    }
  }
}
MOTION
Frames:	6
Frame Time:	0.0333333
5.72205e-005 65.662 3.42586 0 0 -0 0 0 -0 0 0 -0 0 0 -0 0 0 -0 0 0 -0 0 0 -12.5014 88.1196 14.2451 10.6914 -0.00160068 -0.00239207 0.000740045 -8.4365e-005 7.00714e-005 -9.52055e-007 9.93923e-017 -1.98785e-016 -1.59028e-015 9.93923e-017 -5.96354e-016 -1.59028e-015 -9.93923e-017 -5.96354e-016 -1.59028e-015 9.93923e-017 -1.98785e-016 -1.59028e-015 -0.0128176 0.00232552 8.52707e-005 9.93923e-017 5.96354e-016 -0 9.93923e-017 -1.98785e-016 -1.59028e-015 -0.0160551 0.00299681 0.000857156 -2.48481e-016 0 3.18055e-015 9.93923e-017 -1.98785e-016 -1.59028e-015 -0.0125865 0.0031206 0.00282719 0 1.98785e-016 -0 9.93923e-017 -1.98785e-016 -1.59028e-015 9.93923e-017 -5.96354e-016 -1.59028e-015 -9.93923e-017 -5.96354e-016 -1.59028e-015 -0.865644 0.16582 7.03859 -88.0329 10.2057 -10.5567 0.0015593 -0.00248883 -0.000788628 7.87605e-005 4.10553e-005 1.24965e-005 -3.97569e-016 -7.95139e-016 3.18055e-015 -1.98785e-016 -3.97569e-016 3.18055e-015 -1.98785e-016 0 3.18055e-015 -3.97569e-016 -7.95139e-016 3.18055e-015 0.0129473 0.00231697 -8.70038e-005 9.93923e-017 -7.95139e-016 1.59028e-015 -3.97569e-016 -7.95139e-016 3.18055e-015 0.0163314 0.00303369 -0.000872333 3.97569e-016 7.95139e-016 -3.18055e-015 -3.97569e-016 -7.95139e-016 3.18055e-015 0.0145763 0.00367772 -0.00326275 9.93923e-017 -3.97569e-016 -0 -3.97569e-016 -7.95139e-016 3.18055e-015 -1.98785e-016 -3.97569e-016 3.18055e-015 -1.98785e-016 0 3.18055e-015 3.42482 1.32465 -0.0626183 0.000117508 0.717283 0.000978199 -3.4257 -2.04197 -0.0604716 6.47761e-025 0 -0 -3.42483 1.34017 0.0627307 -0.000193936 0.682302 -0.0013703 3.42574 -2.02253 0.0595886 -8.45714e-024 0 -7.40531e-025 
-24.1844 6.25231 1.6014 -2.71106e-009 4.39607e-007 1.72689e-009 -0.0286544 7.94796 -0.00636453 -0.0572469 15.8959 -0.00879888 -0.0572471 15.896 -0.00879887 0.267527 0.267453 -0.000623769 1.96404e-008 0.375951 1.8545e-008 -29.8416 9.27764 -44.4891 68.4214 -15.3768 7.11697 -8.37323 -9.67071 -1.8511 19.1697 -3.60516 1.14868 5.56127e-006 -1.56155e-006 2.69995e-006 3.01128e-006 3.29323e-006 -8.79552e-007 2.00246e-006 -2.35229e-006 -2.05329e-006 5.56127e-006 -1.56155e-006 2.69995e-006 -0.0128315 0.00233763 8.44173e-005 4.04901e-006 -2.6986e-006 9.39496e-007 5.56127e-006 -1.56155e-006 2.69995e-006 -0.0160554 0.00299745 0.000855488 -3.94832e-006 -9.96808e-007 5.39662e-006 5.56127e-006 -1.56155e-006 2.69995e-006 -0.0125844 0.00312881 0.00282968 1.4054e-006 -8.35987e-006 -6.77555e-006 5.56127e-006 -1.56155e-006 2.69995e-006 3.01128e-006 3.29323e-006 -8.79552e-007 2.00246e-006 -2.35229e-006 -2.05329e-006 28.5373 8.52857 40.0205 -68.2353 -19.1804 -5.41713 9.79799 -5.66309 1.49428 -22.1454 -3.91089 -1.96351 -4.54788e-006 -3.193e-006 9.42929e-006 -1.42321e-005 -1.09935e-005 8.05319e-006 -1.04114e-005 2.30646e-006 -3.33549e-006 -4.54788e-006 -3.193e-006 9.42929e-006 0.0129821 0.00232299 -8.59752e-005 1.59028e-015 -3.18055e-015 -0 -4.54788e-006 -3.193e-006 9.42929e-006 0.0162985 0.00302543 -0.000875336 -1.76556e-031 3.18055e-015 3.18055e-015 -4.54788e-006 -3.193e-006 9.42929e-006 0.0146108 0.00368965 -0.00327849 -1.59028e-015 3.18055e-015 3.18055e-015 -4.54788e-006 -3.193e-006 9.42929e-006 -1.42321e-005 -1.09935e-005 8.05319e-006 -1.04114e-005 2.30646e-006 -3.33549e-006 -5.458 -43.6184 -14.3885 -176.345 22.1793 171.096 -5.13938 37.4843 -10.272 1.79104e-007 3.21821e-006 -7.34378e-007 5.45252 -43.6211 14.3803 176.345 22.1761 -171.1 5.14072 37.4837 10.2672 -7.95139e-016 -3.18055e-015 1.59028e-015 
-24.1844 6.25231 1.6014 -2.71106e-009 4.39607e-007 1.72689e-009 -0.0286544 7.94796 -0.00636453 -0.0572469 15.8959 -0.00879888 -0.0572471 15.896 -0.00879887 0.536652 0.536329 -0.0267536 8.274e-008 0.753489 7.60431e-009 -29.8416 9.27765 -44.4891 68.4215 -15.3768 7.11699 -8.37325 -9.67072 -1.85111 19.1698 -3.60513 1.1487 -1.31174e-005 2.78947e-006 -1.14622e-006 1.00123e-006 -4.97613e-006 -1.02665e-006 3.08232e-006 -4.75841e-006 4.81152e-006 -1.31174e-005 2.78947e-006 -1.14622e-006 -0.0128239 0.00232557 8.79049e-005 -3.48323e-008 -1.91616e-006 -2.84554e-006 -1.31174e-005 2.78947e-006 -1.14622e-006 -0.0160241 0.00298758 0.000862734 -1.54051e-006 -3.81733e-006 -2.40587e-006 -1.31174e-005 2.78947e-006 -1.14622e-006 -0.0125843 0.00313181 0.00283601 6.39531e-006 -1.55524e-005 -8.15206e-006 -1.31174e-005 2.78947e-006 -1.14622e-006 1.00123e-006 -4.97613e-006 -1.02665e-006 3.08232e-006 -4.75841e-006 4.81152e-006 28.5373 8.52855 40.0205 -68.2353 -19.1804 -5.4171 9.79802 -5.66311 1.49428 -22.1454 -3.91089 -1.96352 -2.9827e-006 7.06779e-007 6.36698e-007 -1.59028e-015 9.54166e-015 3.18055e-015 2.24146e-006 -8.59808e-006 1.85879e-007 -2.9827e-006 7.06779e-007 6.36698e-007 0.0130008 0.00232864 -9.07501e-005 4.45988e-006 -2.25955e-006 1.8271e-006 -2.9827e-006 7.06779e-007 6.36698e-007 0.0163403 0.00303685 -0.000880274 -7.57023e-006 -5.11324e-006 1.29755e-005 -2.9827e-006 7.06779e-007 6.36698e-007 0.014554 0.00367264 -0.00325792 -4.53134e-006 -3.32593e-006 6.64638e-006 -2.9827e-006 7.06779e-007 6.36698e-007 -1.59028e-015 9.54166e-015 3.18055e-015 2.24146e-006 -8.59808e-006 1.85879e-007 -5.458 -43.6184 -14.3885 -176.345 22.1793 171.096 -5.13938 37.4843 -10.272 1.79104e-007 3.21821e-006 -7.34378e-007 5.45255 -43.6212 14.3804 176.345 22.176 -171.1 5.14073 37.4837 10.2672 4.11877e-007 -5.96374e-008 7.34653e-007 
-24.1844 6.25231 1.6014 -2.71106e-009 4.39607e-007 1.72689e-009 -0.0286544 7.94796 -0.00636453 -0.0572469 15.8959 -0.00879888 -0.0572471 15.896 -0.00879887 0.806015 0.805187 -0.0541585 -5.79175e-008 1.13115 1.08257e-007 -29.8416 9.27764 -44.4891 68.4214 -15.3768 7.11699 -8.37325 -9.67074 -1.85112 19.1697 -3.60513 1.14868 4.77083e-015 0 -9.54166e-015 0 0 -1.59028e-014 -1.59028e-015 3.18055e-015 -0 4.77083e-015 0 -9.54166e-015 -0.0128159 0.00233344 8.0604e-005 -1.59028e-015 -9.54166e-015 9.54166e-015 4.77083e-015 0 -9.54166e-015 -0.0160836 0.00300854 0.000856536 1.76556e-031 3.18055e-015 -3.18055e-015 4.77083e-015 0 -9.54166e-015 -0.0126105 0.00313402 0.00283372 6.36111e-015 -3.18055e-015 -0 4.77083e-015 0 -9.54166e-015 0 0 -1.59028e-014 -1.59028e-015 3.18055e-015 -0 28.5373 8.52856 40.0205 -68.2353 -19.1804 -5.41711 9.798 -5.66312 1.4943 -22.1454 -3.91087 -1.96351 -4.38619e-006 2.00806e-006 -1.03012e-005 4.38619e-006 -2.00806e-006 1.03012e-005 -7.46562e-006 -6.37138e-006 2.64939e-007 -4.38619e-006 2.00806e-006 -1.03012e-005 0.0129679 0.0023153 -8.21599e-005 -3.71093e-006 -1.60832e-006 -1.32283e-006 -4.38619e-006 2.00806e-006 -1.03012e-005 0.0163334 0.00302671 -0.00086679 4.45984e-006 -5.6253e-006 1.82716e-006 -4.38619e-006 2.00806e-006 -1.03012e-005 0.0146346 0.00368041 -0.00326967 -6.6793e-006 -2.75849e-006 -3.46818e-006 -4.38619e-006 2.00806e-006 -1.03012e-005 4.38619e-006 -2.00806e-006 1.03012e-005 -7.46562e-006 -6.37138e-006 2.64939e-007 -5.45803 -43.6184 -14.3886 -176.345 22.1794 171.096 -5.13938 37.4844 -10.272 7.95139e-016 -1.80507e-009 -0 5.45252 -43.621 14.3803 176.345 22.1761 -171.1 5.1407 37.4837 10.2672 -1.63955e-006 -7.51369e-006 -1.66299e-006 
-24.1844 6.25231 1.6014 -2.71106e-009 4.39607e-007 1.72689e-009 -0.0286544 7.94796 -0.00636453 -0.0572469 15.8959 -0.00879888 -0.0572471 15.896 -0.00879887 1.07562 1.07402 -0.0828387 -3.81997e-009 1.50897 -1.22763e-007 -29.8416 9.27764 -44.4891 68.4214 -15.3768 7.11697 -8.37325 -9.67073 -1.85112 19.1697 -3.60513 1.14869 0 9.54166e-015 -0 -3.18055e-015 -6.36111e-015 -1.27222e-014 1.76556e-031 3.18055e-015 -3.18055e-015 0 9.54166e-015 -0 -0.0128461 0.00232606 8.37103e-005 -9.54166e-015 0 1.27222e-014 0 9.54166e-015 -0 -0.0160357 0.00299382 0.000861152 3.18055e-015 -9.54166e-015 -6.36111e-015 0 9.54166e-015 -0 -0.0125819 0.00312563 0.00282408 -1.59028e-015 0 -6.36111e-015 0 9.54166e-015 -0 -3.18055e-015 -6.36111e-015 -1.27222e-014 1.76556e-031 3.18055e-015 -3.18055e-015 28.5373 8.52857 40.0205 -68.2353 -19.1804 -5.41713 9.79799 -5.66309 1.49428 -22.1454 -3.91089 -1.96351 5.89156e-006 -5.41558e-006 7.20085e-006 -1.49135e-006 -7.9654e-007 3.18349e-007 -1.19168e-005 3.63443e-006 -2.35176e-007 5.89156e-006 -5.41558e-006 7.20085e-006 0.0129941 0.00232279 -9.42148e-005 -1.64343e-005 1.46377e-006 3.6295e-006 5.89156e-006 -5.41558e-006 7.20085e-006 0.0163328 0.00303937 -0.000875768 -4.45984e-006 1.96582e-006 -1.82716e-006 5.89156e-006 -5.41558e-006 7.20085e-006 0.0145585 0.00366858 -0.00326165 -1.48641e-008 -1.18339e-006 2.78211e-006 5.89156e-006 -5.41558e-006 7.20085e-006 -1.49135e-006 -7.9654e-007 3.18349e-007 -1.19168e-005 3.63443e-006 -2.35176e-007 -5.458 -43.6184 -14.3886 -176.345 22.1793 171.096 -5.13937 37.4843 -10.272 -2.59685e-007 2.92113e-006 3.02021e-006 5.45256 -43.6211 14.3804 176.345 22.1761 -171.1 5.14075 37.4837 10.2672 -7.95139e-016 -1.81655e-009 -0 
-24.1844 6.25231 1.6014 -2.71106e-009 4.39607e-007 1.72689e-009 -0.0286544 7.94796 -0.00636453 -0.0572469 15.8959 -0.00879888 -0.0572471 15.896 -0.00879887 1.34548 1.34277 -0.112797 7.74031e-008 1.88693 -1.21533e-010 -29.8416 9.27764 -44.4891 68.4214 -15.3768 7.11697 -8.37325 -9.6707 -1.8511 19.1697 -3.60517 1.14869 -4.77083e-015 6.36111e-015 6.36111e-015 -3.01129e-006 -6.156e-007 8.79552e-007 7.56373e-006 6.04792e-007 6.46656e-007 -4.77083e-015 6.36111e-015 6.36111e-015 -0.0128133 0.00233264 8.76761e-005 -1.01071e-005 4.69323e-007 -2.02617e-006 -4.77083e-015 6.36111e-015 6.36111e-015 -0.016085 0.00300631 0.00086267 -1.59028e-015 0 6.36111e-015 -4.77083e-015 6.36111e-015 6.36111e-015 -0.0125733 0.00312788 0.00282719 -4.88549e-006 1.98932e-006 9.91352e-006 -4.77083e-015 6.36111e-015 6.36111e-015 -3.01129e-006 -6.156e-007 8.79552e-007 7.56373e-006 6.04792e-007 6.46656e-007 28.5373 8.52857 40.0205 -68.2353 -19.1804 -5.41713 9.79799 -5.66309 1.49428 -22.1454 -3.91089 -1.96351 -4.54788e-006 -3.193e-006 9.42929e-006 -1.42321e-005 -1.09935e-005 8.05319e-006 -1.04114e-005 2.30646e-006 -3.33549e-006 -4.54788e-006 -3.193e-006 9.42929e-006 0.0129821 0.00232299 -8.59752e-005 1.59028e-015 -3.18055e-015 -0 -4.54788e-006 -3.193e-006 9.42929e-006 0.0162985 0.00302543 -0.000875336 -1.76556e-031 3.18055e-015 3.18055e-015 -4.54788e-006 -3.193e-006 9.42929e-006 0.0146108 0.00368965 -0.00327849 -1.59028e-015 3.18055e-015 3.18055e-015 -4.54788e-006 -3.193e-006 9.42929e-006 -1.42321e-005 -1.09935e-005 8.05319e-006 -1.04114e-005 2.30646e-006 -3.33549e-006 -5.458 -43.6184 -14.3885 -176.345 22.1793 171.096 -5.13938 37.4843 -10.272 1.79104e-007 3.21821e-006 -7.34378e-007 5.45252 -43.6211 14.3803 176.345 22.1761 -171.1 5.14072 37.4837 10.2672 -7.95139e-016 -3.18055e-015 1.59028e-015 
